<svg id="Layer_1" height="512" viewBox="0 0 512 512" width="512" xmlns="http://www.w3.org/2000/svg" data-name="Layer 1"><path d="m159.11 317.377h-120.67a32.434 32.434 0 0 0 -32.44 32.43v70.46h158.2l10.57-98.859a32.183 32.183 0 0 0 -15.66-4.031z" fill="#80aaff"/><path d="m62.44 317h-24c-17.92 0-32.44 14.9-32.44 32.807v70.193h24v-70.193c0-17.907 14.52-32.807 32.44-32.807z" fill="#6f94ce"/><path d="m501.79 228.084c-10.27-27.26-24.96-50.763-34.57-64.6a33.056 33.056 0 0 0 -37.15-12.862 24.909 24.909 0 0 0 -10.53 6.378l-.42-.288a25.07 25.07 0 0 0 -10.25-6.088 33.059 33.059 0 0 0 -37.15 12.87c-9.61 13.84-24.3 37.327-34.57 64.586-16.03 42.543 15.72 87.92 61.18 87.92h42.28c45.46 0 77.21-45.376 61.18-87.916z" fill="#7f3d32"/><path d="m229.36 309a15.735 15.735 0 0 1 -1.409-2h-.951z" fill="#4e6dca"/><path d="m299.7 285h-75.68c-.13 2-.19 2.25-.19 3.36 0 6.012 1.041 14.517 4.121 19.644l66.316.4c4.17-5.23 5.576-13 5.576-19.854 0-1.095-.013-1.55-.143-3.55z" fill="#4e6dca"/><path d="m154.44 317.378v102.889h-20.55v-85.579a34.788 34.788 0 0 0 -.56-18.48 14.794 14.794 0 0 0 5.77 1.17z" fill="#313960"/><path d="m124.85 301.387 3.35 4.58a34.807 34.807 0 0 1 5.69 28.721c-.1.44-.22.88-.34 1.309a34.816 34.816 0 0 1 -2.72 6.77 34.427 34.427 0 0 1 -4.07 6.051l-5.53 6.6a4.738 4.738 0 0 1 -7.61-.459l-14.75-22.77 11.68-6.49a27.8 27.8 0 0 0 14.3-24.312z" fill="#9fc4ff"/><path d="m72.69 301.387a27.808 27.808 0 0 0 14.31 24.313l11.68 6.49-14.75 22.77a4.738 4.738 0 0 1 -7.61.459l-5.53-6.6a35.006 35.006 0 0 1 -6.8-12.819c-.22-.78-.42-1.57-.58-2.36a34.862 34.862 0 0 1 5.94-27.67z" fill="#9fc4ff"/><path d="m63.34 420.267h-20.23v-102.889h15.34a14.831 14.831 0 0 0 5.77-1.17 34.638 34.638 0 0 0 -.81 17.429l-.07.021z" fill="#313960"/><path d="m469.06 336.148h-98.66a26.286 26.286 0 0 0 -11.65 2.689l.77 81.43h136.06v-57.609a26.513 26.513 0 0 0 -26.52-26.51z" fill="#313960"/><path d="m413.08 171.007a19.12 19.12 0 0 0 -.19 2.99s22.38 4.47 42.09 27.781c0 .01.01.01.01.019 4.93 9.081-2.81 21.43-2.81 21.43-14.98-31.31-45.5-38.359-45.5-38.359a118.857 118.857 0 0 0 6.39-13.861z" fill="#68322b"/><path d="m364.57 243.958a7.547 7.547 0 0 1 9.59.969h2.19v14.061h-2.19a8.921 8.921 0 0 1 -9.59-15.03z" fill="#ea9f96"/><path d="m358.75 338.837a34.171 34.171 0 0 0 -33.38-26.879h-127.02a34.154 34.154 0 0 0 -34.15 34.142v74.17h195.32v-74.17a34.724 34.724 0 0 0 -.77-7.263z" fill="#4e6dca"/><path d="m323.6 192.378a9.6 9.6 0 0 1 9.16.889 11.486 11.486 0 0 1 -12.35 19.351h-.09l.09-18.09c.16-.16.33-.32.5-.46a9.719 9.719 0 0 1 2.69-1.69z" fill="#ea9f96"/><path d="m221.16 107.007h.36l21.54-10.007a56.633 56.633 0 0 1 80.49 51.371v43.91l.05.1a9.719 9.719 0 0 0 -2.69 1.69l-.11-.12v-1.07a38.982 38.982 0 0 0 -38.99-38.991h-36.72a24.325 24.325 0 0 1 -23.93-19.979z" fill="#7f3d32"/><path d="m221.16 133.908v23.8a27.2 27.2 0 0 1 -27.24 27.24v-55.691a27.245 27.245 0 0 1 27.24-27.24z" fill="#68322b"/><path d="m203.19 212.618a11.486 11.486 0 0 1 -12.35-19.351 9.187 9.187 0 0 1 3.14-1.4 9.861 9.861 0 0 1 9.21 2.66l.24.34v17.75z" fill="#ea9f96"/><path d="m154.39 205.807a9.252 9.252 0 0 1 11.61-1.269.761.761 0 0 1 .13.08 10.911 10.911 0 0 1 -11.74 18.382h-1.11v-17.19z" fill="#ea9f96"/><path d="m150.9 156.767-.32.12 2.7 48.92h1.11a9.251 9.251 0 0 1 11.61-1.269v-32.661a15.1 15.1 0 0 0 -15.1-15.11z" fill="#ccd3df"/><path d="m124.82 287.9-52.12-.011-.01.021v13.479a27.808 27.808 0 0 0 14.31 24.311l11.68 6.49h.19l11.68-6.49a27.8 27.8 0 0 0 14.3-24.311v-13.441z" fill="#ef948b"/><path d="m46.41 156.767a15.111 15.111 0 0 0 -15.11 15.11v32.74a9.258 9.258 0 0 1 11.74 1.19h1.22l2.67-48.84z" fill="#ccd3df"/><path d="m31.3 204.618a9.258 9.258 0 0 1 11.74 1.189h1.22v17.193h-1.22a10.912 10.912 0 0 1 -11.74-18.382z" fill="#ea9f96"/><path d="m154.28 176.837v52.09a55.27 55.27 0 0 1 -12.67 35.311l-.15-.021a23.426 23.426 0 0 0 .17-2.91c0-18.489-19.19-33.479-42.86-33.479s-42.85 14.99-42.85 33.479a23.426 23.426 0 0 0 .17 2.91l-.15.021a55.278 55.278 0 0 1 -12.68-35.311v-52.09a55.51 55.51 0 1 1 111.02 0z" fill="#efada3"/><path d="m55.775 261.307c0-18.552 19.244-33.593 43-33.593s43.005 15.041 43.005 33.593a23.587 23.587 0 0 1 -.171 2.92c-1.054 9.673-7.375 18.172-16.7 23.761a52.873 52.873 0 0 1 -52.3-.011c-9.309-5.588-15.609-14.087-16.664-23.75a23.587 23.587 0 0 1 -.17-2.92z" fill="#ccd3df"/><path d="m284.94 339.488a24.978 24.978 0 0 1 -20.49-10.651 2.386 2.386 0 0 1 .82-3.49l18.94-10.229a29.9 29.9 0 0 0 15.68-26.29 29.007 29.007 0 0 0 -.19-3.34l11.84 19.09a30.182 30.182 0 0 1 .54 7.38 29.861 29.861 0 0 1 -13.48 23.45 24.875 24.875 0 0 1 -13.66 4.08z" fill="#6a96ef"/><path d="m211.64 311.958a30.182 30.182 0 0 1 .54-7.38l11.84-19.09a29.048 29.048 0 0 0 -.19 3.349 29.9 29.9 0 0 0 15.68 26.281l18.94 10.229a2.41 2.41 0 0 1 .82 3.49 24.988 24.988 0 0 1 -34.15 6.571 29.861 29.861 0 0 1 -13.48-23.45z" fill="#6a96ef"/><path d="m293.26 307.377a15.542 15.542 0 0 1 -4.58-11.04v-25.47l-.04-.07h-53.57l-.04.07v25.47a15.547 15.547 0 0 1 -4.66 11.13h-.01a29.731 29.731 0 0 0 9.15 7.65l18.94 10.23a2.368 2.368 0 0 1 1.17 1.49l.72-.23h3.15l.6.221a2.432 2.432 0 0 1 1.18-1.481l18.94-10.23a29.848 29.848 0 0 0 9.15-7.65z" fill="#ef948b"/><path d="m203.29 183.3a27.254 27.254 0 0 0 17.87-25.589v-23.8a24.325 24.325 0 0 0 23.93 19.979h36.72a38.982 38.982 0 0 1 38.99 38.991v1.07l.11.12c-.17.14-.34.3-.5.46l-.09 18.09-.03 6.24a58.43 58.43 0 1 1 -116.86 0v-35.274z" fill="#efada3"/><path d="m452.7 336.148a12.1 12.1 0 0 1 -5.65-1.4l-.01.01h-54.61l-.01-.02a12 12 0 0 1 -5.66 1.41h-6.43a45.9 45.9 0 0 0 9.6 26.25l29.87 38.4 29.88-38.389a45.258 45.258 0 0 0 9.47-26.26z" fill="#c6e02d"/><path d="m440.57 324.008v-19.85l-41.67.009v19.841a12.133 12.133 0 0 1 -6.48 10.73l.01.02a33.534 33.534 0 0 0 7.07 20.19l20.3 26.09 20.3-26.09a32.838 32.838 0 0 0 6.94-20.19l.01-.01a12.139 12.139 0 0 1 -6.48-10.74z" fill="#ef948b"/><path d="m454.99 201.8c4.93 9.08-2.81 21.43-2.81 21.43-14.98-31.31-45.5-38.36-45.5-38.36-6.14 11.56-16.8 27.831-32.33 38.65v40.311a45.385 45.385 0 1 0 90.77 0v-47.7a103.465 103.465 0 0 0 -10.13-14.331z" fill="#efada3"/><path d="m67.881 238.009a55.825 55.825 0 0 1 -.881-9.082v-52.09a55.885 55.885 0 0 1 43.748-54.2 55.851 55.851 0 0 0 -67.748 54.2v52.09a55.388 55.388 0 0 0 12.81 35.311l.215-.021a23.431 23.431 0 0 1 -.2-2.91c-.003-9.058 4.575-17.271 12.056-23.298z" fill="#c98d87"/><path d="m96.611 287.977c-9.311-5.588-15.611-14.087-16.666-23.75a23.587 23.587 0 0 1 -.17-2.92c0-15.3 13.089-28.2 30.995-32.257a54.264 54.264 0 0 0 -12-1.336c-23.751 0-42.995 15.041-42.995 33.593a23.587 23.587 0 0 0 .17 2.92c1.055 9.663 7.355 18.162 16.666 23.75a51.1 51.1 0 0 0 26.159 6.923 54.292 54.292 0 0 0 12-1.332 48.462 48.462 0 0 1 -14.159-5.591z" fill="#adb3bc"/><path d="m82.565 269.294a13.2 13.2 0 1 1 0-26.4h32.52a13.2 13.2 0 1 1 -9.523 22.446 7.012 7.012 0 0 0 -4.966-2.187h-3.5a7.342 7.342 0 0 0 -5.178 2.257l-.02.02a13.2 13.2 0 0 1 -9.333 3.864z" fill="#ea9f96"/><g fill="#a5716f"><path d="m298.819 197.22a3 3 0 0 1 -3-3 7.08 7.08 0 0 0 -14.16 0 3 3 0 1 1 -6 0 13.08 13.08 0 0 1 26.16 0 3 3 0 0 1 -3 3z"/><path d="m245.06 197.22a3 3 0 0 1 -3-3 7.08 7.08 0 0 0 -14.16 0 3 3 0 0 1 -6 0 13.08 13.08 0 0 1 26.16 0 3 3 0 0 1 -3 3z"/><path d="m261.859 241.942a26.586 26.586 0 0 1 -18.925-7.84 3 3 0 1 1 4.243-4.242 20.763 20.763 0 0 0 29.365 0 3 3 0 1 1 4.243 4.242 26.59 26.59 0 0 1 -18.926 7.84z"/></g><path d="m203.266 386.018a3 3 0 0 0 -3 3v31.25h6v-31.25a3 3 0 0 0 -3-3z" fill="#415a99"/><path d="m320.453 386.018a3 3 0 0 0 -3 3v31.25h6v-31.25a3 3 0 0 0 -3-3z" fill="#415a99"/><path d="m133.885 208.523a3 3 0 0 1 -3-3 6.576 6.576 0 0 0 -13.152 0 3 3 0 0 1 -6 0 12.576 12.576 0 0 1 25.152 0 3 3 0 0 1 -3 3z" fill="#a5716f"/><path d="m82.813 208.523a3 3 0 0 1 -3-3 6.576 6.576 0 1 0 -13.151 0 3 3 0 0 1 -6 0 12.576 12.576 0 1 1 25.151 0 3 3 0 0 1 -3 3z" fill="#a5716f"/><path d="m104.64 255.91h-11.733a3 3 0 0 1 0-6h11.733a3 3 0 1 1 0 6z" fill="#a5716f"/><path d="m98.773 372.463a3.949 3.949 0 1 1 3.95-3.949 3.953 3.953 0 0 1 -3.95 3.949z" fill="#56568c"/><path d="m98.773 400.53a3.949 3.949 0 1 1 3.95-3.949 3.954 3.954 0 0 1 -3.95 3.949z" fill="#56568c"/><path d="m448.439 247.7a3 3 0 0 1 -3-3 4.83 4.83 0 0 0 -9.659 0 3 3 0 0 1 -6 0 10.83 10.83 0 0 1 21.659 0 3 3 0 0 1 -3 3z" fill="#a5716f"/><path d="m406.684 247.7a3 3 0 0 1 -3-3 4.83 4.83 0 0 0 -9.659 0 3 3 0 1 1 -6 0 10.83 10.83 0 0 1 21.659 0 3 3 0 0 1 -3 3z" fill="#a5716f"/><path d="m419.732 282.42a21.391 21.391 0 0 1 -15.173-6.274 3 3 0 1 1 4.241-4.246 15.458 15.458 0 0 0 21.862 0 3 3 0 1 1 4.242 4.243 21.391 21.391 0 0 1 -15.172 6.277z" fill="#a5716f"/><path d="m375.591 390.993a2.945 2.945 0 0 0 -3.945 1.429 36.94 36.94 0 0 0 -.714 27.578h6.408c-.041 0-.1-.272-.187-.47a30.937 30.937 0 0 1 0-24.592 3 3 0 0 0 -1.562-3.945z" fill="#20263d"/><path d="m467.817 392.422a2.971 2.971 0 0 0 -3.944-1.5 3.038 3.038 0 0 0 -1.563 3.978 30.972 30.972 0 0 1 0 24.61c-.085.2-.145.486-.186.486h6.408a36.935 36.935 0 0 0 -.715-27.574z" fill="#20263d"/></svg>