<svg clip-rule="evenodd" fill-rule="evenodd" height="512" image-rendering="optimizeQuality" shape-rendering="geometricPrecision" text-rendering="geometricPrecision" viewBox="0 0 7111 7111" width="512" xmlns="http://www.w3.org/2000/svg" xmlns:xlink="http://www.w3.org/1999/xlink"><linearGradient id="id0" gradientUnits="userSpaceOnUse" x1="3555.56" x2="3555.56" y1="1.567" y2="7109.55"><stop offset="0" stop-color="#66c"/><stop offset=".509804" stop-color="#f0f"/><stop offset="1" stop-color="#f60"/></linearGradient><g id="Layer_x0020_1"><path d="m2852 3840c-320-195-516-380-629-509-52 48-112 78-166 96-127 287-552 408-771 452 15 446 38 798 472 999 64 29 116 55 157 75 65 32 121 60 139 60 17 0 73-28 138-60 42-20 93-46 157-75 41-19 78-39 112-60 2-1 4-2 5-3 340-216 371-555 386-975zm757 750c-218 0-396-178-396-396 0-219 178-396 396-396 219 0 397 177 397 396 0 218-178 396-397 396zm0-515c-65 0-118 53-118 119 0 65 53 118 118 118 66 0 119-53 119-118 0-66-53-119-119-119zm620-225c-243 0-441-198-441-441 0-244 198-441 441-441 244 0 441 197 441 441 0 243-197 441-441 441zm0-605c-90 0-163 74-163 164s73 163 163 163 164-73 164-163-74-164-164-164zm1616-253c-184 0-349-83-459-215-110 132-275 215-459 215-238 0-451-141-546-353-276-52-488-297-488-587 0-15 1-29 2-44-146-121-234-304-234-496 0-194 88-377 236-499-2-21-4-43-4-65 0-289 210-534 485-587 94-216 307-359 549-359 184 0 349 83 459 215 110-132 275-215 459-215 242 0 455 143 548 359 275 53 485 298 485 587 0 22-1 44-3 65 147 122 236 305 236 499 0 192-88 375-234 496 1 15 1 29 1 44 0 290-211 535-488 587-95 212-307 353-545 353zm-320-597c0 176 143 320 320 320 146 0 273-99 310-239 15-61 69-103 131-104 131-3 243-84 290-198-39 9-78 13-115 13-164 0-305-78-379-143-57-51-62-139-12-196 51-57 138-63 196-13 2 3 53 45 126 64 87 24 168 4 247-61v-1l1-1 1-1 3-1 2-2 2-2c3-2 6-3 8-5 111-67 177-184 177-313 0-130-70-251-182-317-54-32-80-97-63-158 8-29 13-59 13-89 0-173-141-316-313-320-5 0-9 0-14-1h-1-1c-32-4-129-4-189 44-37 30-59 78-65 145-7 72-67 125-138 125-4 0-9 0-13 0-77-7-133-75-125-152 17-180 102-283 170-336 51-40 106-66 158-81-58-58-138-93-225-93-176 0-320 144-320 320v1795zm-278-1795v-1c0-176-144-320-320-320-87 0-167 35-225 93 52 15 107 41 158 81 68 53 153 156 170 336 8 77-48 145-125 152-4 0-9 0-13 0-71 0-131-53-138-125-7-68-28-115-66-145-71-56-186-44-187-44h-1-2-1c-1 0-2 0-3 0l-1 1m-8 0h-1c-172 4-313 147-313 320 0 30 4 60 13 89 17 61-9 126-64 158-112 66-181 187-181 317 0 129 66 246 176 313 4 2 7 4 11 7l2 2 2 1h1v1c1 0 1 1 2 2 190 156 365 5 372-2 58-51 145-46 196 12 51 57 46 145-11 196-74 65-215 143-379 143-38 0-76-4-116-13 48 114 160 195 290 198 63 1 116 43 132 104 37 140 164 239 310 239 176 0 320-144 320-320v-2-1793m1088 1078c-79 0-157-21-226-61-1 0-2-1-3-2-83 84-197 133-319 133-26 0-52-2-79-7-75-13-126-85-113-160 14-76 86-126 161-113 64 11 127-15 165-63-54-126-50-275 24-402 38-66 123-89 190-51 66 38 89 123 50 190-47 82-19 187 63 235 45 26 88 25 116 20 76-13 148 37 161 113 13 75-37 147-113 161-26 4-52 7-77 7zm-1845-1050h-1-2-2m-48 1050c-26 0-52-3-77-7-76-14-126-86-113-161 13-76 85-126 161-113 28 5 71 6 115-20 83-48 111-153 63-235-38-67-15-152 51-190 67-38 152-15 190 51 73 127 77 276 24 402 38 48 101 74 165 63 75-13 147 37 160 113 14 75-37 147-112 160-27 5-53 7-80 7-121 0-236-49-318-133-1 1-3 2-4 2-68 40-146 61-225 61zm-439 5432h-737-2385-737c-77 0-139-63-139-139v-742c0-485 395-880 881-880h447c49-89 80-224 96-348-152-115-259-262-323-445-78-221-86-469-93-709-1-18-2-37-2-56-179-470 13-985 22-1007 9-23 24-44 44-60 38-30 89-52 141-69-17-24-29-41-31-43-22-31-30-69-23-107 7-37 29-70 62-91 217-138 468-212 724-212 391 0 759 173 985 463 232 295 303 691 202 1117-9 251-18 511-100 743-69 197-184 355-348 477 16 124 47 258 95 347h478c485 0 880 395 880 880v742c0 76-62 139-139 139zm-2658-1483h-459c-333 0-603 270-603 602v603h459v-427c0-77 62-139 139-139s139 62 139 139v427h2107v-427c0-77 63-139 139-139 77 0 139 62 139 139v427h459v-603c0-332-270-602-602-602h-488l-595 693c-26 30-64 48-104 48h-1c-40 0-77-17-104-46zm342-478c-21 107-53 225-106 325l490 545 467-543c-54-100-87-219-107-327-43 20-80 38-111 54-120 58-191 88-261 88-71 0-142-30-261-88-31-16-68-34-111-54zm-410-2221c-33 110-105 401-34 678 224-47 543-158 575-324 12-63 61-109 125-112 16-2 115-18 145-120 16-54 63-93 119-99 57-5 111 24 137 74 1 1 131 233 554 512 29-271-32-511-181-701-175-223-461-356-767-356-154 0-305 33-444 97 22 30 45 60 65 86 32 40 39 94 18 141-20 47-64 79-115 83-71 7-152 24-197 41z" fill="url(#id0)"/></g></svg>