<svg id="Layer_1" enable-background="new 0 0 512 512" height="512" viewBox="0 0 512 512" width="512" xmlns="http://www.w3.org/2000/svg"><path d="m494.66 287.068c-.132-.169-.272-.333-.418-.492-10.321-11.194-18.583-22.688-24.559-34.165-5.081-9.756-6.935-19.398-5.835-30.344.611-6.09.921-12.286.921-18.415 0-100.66-81.893-182.553-182.552-182.553-38.771 0-76.64 12.441-107.772 35.21-.1-.191-.189-.386-.29-.576l3.613-8.135c1.343-3.024.686-6.564-1.655-8.904l-13.963-13.964c-2.341-2.34-5.88-2.998-8.904-1.654l-8.14 3.615c-4.051-2.166-8.293-3.925-12.682-5.258l-3.197-8.306c-1.187-3.089-4.155-5.127-7.465-5.127h-19.746c-3.31 0-6.277 2.038-7.466 5.126l-3.197 8.306c-4.388 1.333-8.63 3.092-12.682 5.258l-8.14-3.615c-3.024-1.344-6.563-.686-8.904 1.654l-13.962 13.964c-2.34 2.34-2.998 5.879-1.654 8.904l3.614 8.138c-2.166 4.051-3.925 8.294-5.258 12.684l-8.305 3.197c-3.088 1.188-5.126 4.156-5.126 7.466v19.746c0 3.31 2.038 6.277 5.126 7.466l8.303 3.196c1.333 4.392 3.093 8.636 5.259 12.687l-3.613 8.136c-1.343 3.024-.686 6.564 1.655 8.904l13.963 13.962c2.34 2.34 5.878 2.997 8.904 1.655l8.14-3.615c4.051 2.166 8.293 3.925 12.681 5.258l3.197 8.306c1.188 3.089 4.156 5.126 7.466 5.126h.786c-1.046 5.589-1.838 11.23-2.36 16.901h-18.939c-3.31 0-6.277 2.038-7.466 5.126l-3.197 8.306c-4.389 1.333-8.631 3.092-12.682 5.258l-8.14-3.615c-3.024-1.342-6.564-.686-8.904 1.655l-13.963 13.962c-2.34 2.34-2.998 5.879-1.655 8.904l3.615 8.139c-2.166 4.051-3.925 8.294-5.258 12.684l-8.304 3.196c-3.089 1.188-5.126 4.156-5.126 7.466v19.747c0 3.31 2.038 6.277 5.126 7.466l8.303 3.196c1.333 4.391 3.093 8.635 5.259 12.687l-3.613 8.136c-1.344 3.025-.686 6.564 1.654 8.904l13.963 13.962c2.341 2.341 5.879 2.998 8.904 1.655l8.14-3.615c4.051 2.166 8.292 3.925 12.682 5.258l3.197 8.306c1.189 3.088 4.157 5.126 7.466 5.126h19.746c3.31 0 6.277-2.038 7.466-5.126l3.195-8.302c4.392-1.333 8.636-3.093 12.688-5.259l8.136 3.613c3.024 1.343 6.563.685 8.904-1.655l5.194-5.195c4.82 7.145 7.577 14.862 8.563 23.856 4.488 40.881-6.626 89.923-32.142 141.823-1.219 2.479-1.072 5.412.388 7.758s4.027 3.768 6.79 3.768h199.438c3.875 0 7.194-2.778 7.875-6.594 3.5-19.599 10.906-33.27 22.011-40.631 11.588-7.684 28.139-9.155 49.195-4.376.133.03.267.057.402.08 24.243 4.209 39.417 2.744 47.758-4.612 3.189-2.812 6.904-7.909 6.588-16.257.167-20.168 3.612-25.066 6.192-26.996.032-.023.064-.048.096-.072 7.092-5.473 8.176-11.671 7.837-15.906-.522-6.526-4.756-12.315-10.24-17.158 4.986-2.702 9.366-6.286 11.896-10.479 2.522-4.181 3.041-8.704 1.483-12.804-4.702-16.283-1.383-18.18 1.36-19.604 10.64-5.222 16.939-11.81 18.726-19.582 1.626-7.066-.525-14.448-6.39-21.941zm-395.445-145.033c-5.613-1.335-10.959-3.552-15.889-6.587-2.247-1.383-5.03-1.57-7.441-.5l-6.827 3.032-6.195-6.195 3.03-6.823c1.071-2.411.884-5.195-.5-7.442-3.035-4.928-5.251-10.275-6.588-15.894-.611-2.566-2.447-4.667-4.909-5.614l-6.96-2.679v-8.761l6.963-2.68c2.461-.947 4.298-3.048 4.909-5.614 1.336-5.615 3.552-10.96 6.588-15.89 1.383-2.247 1.57-5.031.499-7.442l-3.031-6.826 6.195-6.195 6.827 3.032c2.41 1.071 5.195.884 7.441-.499 4.93-3.035 10.276-5.251 15.889-6.587 2.566-.611 4.667-2.447 5.614-4.909l2.679-6.962h8.76l2.681 6.963c.947 2.462 3.048 4.298 5.614 4.909 5.613 1.335 10.959 3.552 15.889 6.587 2.246 1.383 5.031 1.57 7.441.499l6.827-3.032 6.195 6.195-3.03 6.823c-1.071 2.411-.884 5.196.5 7.442 3.036 4.928 5.252 10.275 6.588 15.893.61 2.566 2.447 4.667 4.909 5.615l6.96 2.679v8.761l-6.963 2.68c-2.462.947-4.298 3.047-4.909 5.613-1.336 5.614-3.552 10.959-6.587 15.889-1.383 2.247-1.57 5.03-.5 7.441l3.032 6.827-6.195 6.195-6.823-3.03c-2.413-1.072-5.197-.885-7.443.5-4.928 3.035-10.274 5.252-15.892 6.588-2.566.61-4.667 2.447-5.615 4.909l-2.679 6.96h-8.76l-2.681-6.963c-.947-2.461-3.047-4.297-5.613-4.908zm34.993 174.753-6.823-3.03c-2.412-1.071-5.196-.884-7.442.5-4.928 3.036-10.275 5.252-15.893 6.588-2.566.61-4.667 2.447-5.615 4.909l-2.679 6.96h-8.76l-2.681-6.963c-.947-2.461-3.047-4.298-5.613-4.909-5.614-1.336-10.96-3.553-15.889-6.587-2.247-1.384-5.031-1.57-7.441-.5l-6.827 3.032-6.195-6.195 3.03-6.823c1.071-2.412.884-5.196-.499-7.443-3.035-4.928-5.252-10.275-6.589-15.893-.611-2.566-2.447-4.667-4.909-5.614l-6.96-2.679v-8.761l6.962-2.68c2.462-.947 4.298-3.048 4.909-5.614 1.336-5.615 3.552-10.961 6.587-15.889 1.384-2.247 1.571-5.031.5-7.442l-3.032-6.826 6.195-6.195 6.827 3.032c2.411 1.07 5.195.883 7.441-.499 4.93-3.035 10.276-5.252 15.89-6.588 2.566-.611 4.666-2.447 5.613-4.909l2.681-6.964h8.76l2.681 6.964c.947 2.461 3.047 4.298 5.613 4.909 5.613 1.336 10.959 3.553 15.889 6.588 2.247 1.383 5.031 1.57 7.441.499l6.827-3.032 6.195 6.195-3.03 6.823c-1.071 2.411-.884 5.195.5 7.442 3.036 4.929 5.252 10.277 6.588 15.894.61 2.566 2.447 4.667 4.909 5.615l6.96 2.679v8.76l-6.963 2.68c-2.462.947-4.298 3.048-4.909 5.614-1.335 5.613-3.552 10.959-6.587 15.888-1.383 2.247-1.57 5.031-.5 7.442l3.032 6.827zm351.25-11.364c-.639 2.778-4.279 5.917-10.25 8.836-.056.027-.112.055-.167.084-15.757 8.167-13.589 24.081-9.358 38.597-1.616 2.608-9.347 7.387-16.702 7.972-3.531.281-6.457 2.85-7.191 6.314-.735 3.465.896 7 4.008 8.691 11.394 6.188 15.909 11.867 16.08 13.994.03.371-.636 1.162-1.623 1.931-8.759 6.589-12.398 18.143-12.556 39.847-.001.144.001.287.008.431.121 2.601-.725 3.347-1.179 3.747-1.514 1.335-8.452 5.335-34.239.883-25.39-5.726-46.04-3.475-61.374 6.689-13.494 8.946-22.75 23.918-27.567 44.561h-180.275c22.96-50.414 32.708-98.29 28.228-139.097-1.422-12.965-5.906-24.275-13.654-34.458.467-1.734.37-3.61-.391-5.325l-3.615-8.14c2.166-4.051 3.925-8.293 5.258-12.682l8.305-3.197c3.089-1.188 5.126-4.156 5.126-7.466v-19.746c0-3.31-2.038-6.277-5.126-7.466l-8.302-3.195c-1.333-4.391-3.093-8.635-5.259-12.688l3.613-8.136c1.343-3.024.686-6.564-1.655-8.904l-13.963-13.962c-2.34-2.34-5.878-2.998-8.904-1.655l-8.14 3.615c-2.874-1.537-5.848-2.858-8.898-3.978.135-10.635 1.278-21.233 3.415-31.613h2.652c3.31 0 6.277-2.038 7.466-5.126l3.195-8.302c4.392-1.333 8.636-3.093 12.688-5.26l8.135 3.613c3.025 1.344 6.564.685 8.904-1.654l13.962-13.963c2.34-2.34 2.998-5.879 1.655-8.904l-3.615-8.14c2.166-4.051 3.925-8.293 5.258-12.681l8.305-3.197c3.089-1.188 5.126-4.156 5.126-7.466v-19.748c0-3.31-2.038-6.277-5.126-7.466l-4.646-1.788c28.554-21.156 63.43-32.728 99.147-32.728 91.837 0 166.552 74.715 166.552 166.553 0 5.598-.283 11.256-.841 16.816-1.425 14.188.978 26.686 7.563 39.332 6.583 12.643 15.583 25.214 26.755 37.369 1.837 2.395 3.802 5.689 3.212 8.256zm-90.368-124.125-14.392-5.54c-2.168-7.67-5.226-15.046-9.125-22.012l6.264-14.104c1.344-3.024.686-6.564-1.654-8.904l-21.053-21.053c-2.34-2.34-5.879-2.997-8.904-1.655l-14.11 6.266c-6.966-3.898-14.338-6.955-22.004-9.123l-5.542-14.397c-1.188-3.089-4.156-5.126-7.466-5.126h-29.774c-3.31 0-6.277 2.038-7.466 5.126l-5.542 14.397c-7.667 2.168-15.039 5.225-22.005 9.123l-14.109-6.266c-3.024-1.342-6.563-.686-8.904 1.655l-21.053 21.053c-2.34 2.34-2.998 5.879-1.655 8.904l6.266 14.107c-3.899 6.965-6.956 14.338-9.124 22.007l-14.395 5.541c-3.089 1.188-5.126 4.156-5.126 7.466v29.773c0 3.31 2.038 6.277 5.126 7.466l14.392 5.54c2.169 7.672 5.226 15.046 9.125 22.012l-6.264 14.104c-1.344 3.024-.686 6.564 1.654 8.904l21.053 21.053c2.34 2.341 5.882 2.998 8.904 1.655l14.11-6.267c6.966 3.899 14.338 6.956 22.004 9.123l5.542 14.397c1.188 3.089 4.156 5.126 7.466 5.126h29.774c3.31 0 6.277-2.038 7.466-5.126l5.54-14.392c7.67-2.168 15.044-5.226 22.012-9.126l14.103 6.264c3.024 1.344 6.564.686 8.904-1.654l21.053-21.054c2.34-2.34 2.998-5.879 1.654-8.904l-6.266-14.109c3.899-6.966 6.956-14.338 9.124-22.004l14.397-5.542c3.088-1.188 5.126-4.156 5.126-7.466v-29.773c0-3.309-2.037-6.277-5.126-7.465zm-10.874 31.746-13.103 5.043c-2.461.947-4.298 3.047-4.909 5.614-2.114 8.885-5.622 17.345-10.426 25.147-1.383 2.247-1.57 5.03-.499 7.441l5.704 12.843-13.285 13.285-12.837-5.702c-2.412-1.073-5.196-.884-7.443.499-7.801 4.805-16.264 8.313-25.153 10.428-2.566.61-4.667 2.447-5.614 4.909l-5.042 13.098h-18.788l-5.043-13.103c-.947-2.462-3.048-4.298-5.614-4.909-8.884-2.114-17.345-5.622-25.147-10.425-2.247-1.384-5.032-1.57-7.441-.5l-12.843 5.704-13.285-13.285 5.701-12.837c1.071-2.411.884-5.196-.5-7.442-4.803-7.798-8.311-16.261-10.427-25.153-.611-2.566-2.447-4.667-4.909-5.614l-13.098-5.042v-18.788l13.101-5.042c2.462-.947 4.298-3.047 4.909-5.614 2.115-8.888 5.623-17.35 10.426-25.149 1.383-2.246 1.57-5.031.5-7.442l-5.704-12.841 13.285-13.285 12.843 5.704c2.411 1.07 5.194.884 7.441-.499 7.803-4.804 16.264-8.312 25.148-10.426 2.566-.611 4.666-2.447 5.613-4.909l5.043-13.103h18.788l5.043 13.103c.947 2.462 3.047 4.298 5.613 4.909 8.885 2.115 17.346 5.622 25.147 10.426 2.246 1.383 5.03 1.57 7.441.499l12.843-5.704 13.285 13.285-5.701 12.837c-1.071 2.411-.884 5.195.499 7.442 4.804 7.8 8.312 16.263 10.428 25.153.611 2.566 2.447 4.667 4.909 5.614l13.098 5.042v18.789zm-102-69.318c-33.042 0-59.924 26.882-59.924 59.925 0 33.042 26.882 59.924 59.924 59.924s59.924-26.882 59.924-59.924c.001-33.043-26.881-59.925-59.924-59.925zm0 103.848c-24.22 0-43.924-19.704-43.924-43.924s19.705-43.925 43.924-43.925 43.924 19.705 43.924 43.925c.001 24.22-19.704 43.924-43.924 43.924zm-127.89-158.621c0-23.4-19.037-42.437-42.437-42.437s-42.437 19.037-42.437 42.437 19.037 42.437 42.437 42.437 42.437-19.037 42.437-42.437zm-68.874 0c0-14.578 11.859-26.437 26.437-26.437s26.437 11.859 26.437 26.437-11.859 26.437-26.437 26.437-26.437-11.86-26.437-26.437zm5.924 136.371c-23.4 0-42.437 19.038-42.437 42.438 0 23.399 19.037 42.437 42.437 42.437s42.437-19.037 42.437-42.437-19.037-42.438-42.437-42.438zm0 68.874c-14.578 0-26.437-11.859-26.437-26.437s11.859-26.438 26.437-26.438 26.437 11.86 26.437 26.438-11.859 26.437-26.437 26.437z"/></svg>