<svg id="Capa_1" enable-background="new 0 0 512 512" height="512" viewBox="0 0 512 512" width="512" xmlns="http://www.w3.org/2000/svg"><g><path d="m251.647 466.954c2.623 1.783 6.083 1.785 8.702-.004 167.956-114.68 241.349-204.066 241.349-309.098 0-39.28-39.654-102.4-98.159-128.168-12.15-3.265-24.924-5.006-38.106-5.006-43.513 0-82.59 18.969-109.434 49.081-26.842-30.112-183.703-33.922-209.943-9.189-28.355 26.727-46.056 64.634-46.056 106.675 0 3.512.087 7.013.261 10.506 0 0 11.545 66.583 30.666 99.907 46.973 63.295 125.288 120.435 220.72 185.296z" fill="#efa5c4"/><path d="m491.396 150.641c0 105.031-63.091 191.327-231.047 306.007-2.619 1.788-6.079 1.787-8.702.004-95.431-64.861-172.1-120.967-220.719-174.994l43.976 59.958c18.67 20.996 41.062 42.439 67.429 64.617 33.534 24.006 64.668 40.763 104.985 68.122 5.237 3.554 12.13 3.554 17.367 0 90.008-61.081 145.011-104.174 192.723-157.295 37.529-49.186 54.592-96.494 54.592-145.815 0-6.691-.449-13.278-1.317-19.731-1.535-11.402-19.287-9.247-19.287-.873z" fill="#e592b8"/><path d="m256 474.03c19.722-13.377 59.764-43.852 59.764-43.852l-60.56-82.728h-72.113c-13.723 9.768-25.001 22.748-32.736 37.843 0 .001 50.032 51.008 105.645 88.737z" fill="#ffe07d"/><path d="m244.011 328.02c-22.706 0-43.731 7.196-60.92 19.431 15.254 8.481 32.441 13.892 50.725 15.365 10.786 30.187 32.802 55.076 60.987 69.628-10.963 7.936-22.43 15.995-34.453 24.204-2.619 1.788-6.079 1.787-8.702.004-36.718-24.956-70.656-48.614-101.292-71.358-3.384 6.604-6.084 13.615-8.021 20.936 29.8 25.064 64.663 51.065 104.982 78.427 5.237 3.554 12.13 3.554 17.367 0 31.226-21.19 59.169-41.563 84.036-61.319-4.969-53.463-49.948-95.318-104.709-95.318z" fill="#ffd064"/><path d="m357.207 203.402 64.357 21.926c39.523-13.174 69.629-46.928 77.615-88.549-4.075-36.666-24.212-59.915-50.389-86.092-13.593-9.417-28.854-16.592-45.252-20.995-53.585 1.648-97.073 43.375-101.502 96.215z" fill="#ffe07d"/><path d="m448.79 50.687c22.761 21.857 38.067 51.413 41.742 84.481-7.203 37.536-34.354 67.978-69.998 79.859-16.984-11.013-36.768-18.06-58.041-19.774-10.717-29.996-32.528-54.755-60.457-69.345-.246 2.935-.378 5.902-.378 8.9 0 58.085 47.087 105.171 105.171 105.171 52.398 0 95.84-38.32 103.845-88.463-5.618-41.747-28.807-77.916-61.884-100.829z" fill="#ffd064"/><path d="m212.903 419.194c16.216-11.004 22.941-19.641 22.941-29.071 0-7.508-6.087-13.595-13.595-13.595-4.036 0-7.661 1.76-10.151 4.553-2.49-2.793-6.115-4.553-10.151-4.553-7.508 0-13.595 6.087-13.595 13.595 0 9.43 6.725 18.067 22.941 29.071.485.33 1.124.33 1.61 0z" fill="#e175a5"/><path d="m74.941 333.312c44.325 0 76.698-27.792 76.698-27.792v-113.32l-106.445-50.153c-18.545 8.624-34.154 22.493-44.924 39.703 1.601 32.091 10.614 63.44 27.98 95.134.874 1.595 31.027 42.445 46.691 56.428z" fill="#d3effd"/><path d="m89.484 132.285c-15.824 0-30.828 3.502-44.29 9.761 17.924 27.67 46.422 47.846 79.774 54.817-4.357 12.742-6.731 26.394-6.731 40.593 0 22.909 6.175 44.394 16.921 62.913-17.207 13.629-38.777 21.989-62.276 22.641-15.665-13.984-29.696-27.729-41.947-41.341l5.375 8.987c10.451 16.793 23.266 33.727 38.593 50.961 4.767.661 9.633 1.011 14.582 1.011 58.085 0 105.171-47.087 105.171-105.171s-47.088-105.172-105.172-105.172z" fill="#b2e5fb"/><path d="m49.925 247.746c-.546 0-1.09-.015-1.632-.045-4.26-.243-7.517-3.893-7.274-8.154.242-4.261 3.905-7.523 8.153-7.275 5.446.329 13.456-3.001 17.569-9.745 2.221-3.644 6.974-4.8 10.619-2.574 3.643 2.221 4.796 6.975 2.575 10.619-6.274 10.287-18.424 17.174-30.01 17.174z" fill="#94d8e6"/><path d="m38.218 289.54c22.758-12.874 59.177-15.677 87.874-8.393l-4.962-16.908c-31.745-5.691-68.345-1.477-92.866 12.638.875 1.597 1.752 3.194 2.669 4.793 2.357 2.617 3.643 6.164 7.285 7.87z" fill="#94d8e6"/><path d="m152.862 292.773c1.597 1.129 3.503 1.677 5.396 1.677 2.557 0 5.089-1 6.803-2.92 2.983-3.341 2.358-8.201-1.396-10.856-11.401-8.062-26.335-13.531-42.534-16.436 1.265 5.794 2.926 11.44 4.962 16.908 10.228 2.596 19.476 6.47 26.769 11.627z" fill="#6fbbc6"/><path d="m30.934 281.669c1.716 2.99 3.516 5.985 5.382 8.983.621-.38 1.259-.748 1.903-1.112-2.487-2.629-4.929-5.253-7.285-7.871z" fill="#6fbbc6"/><path d="m118.55 228.91c-2.45-1.584-4.693-3.71-6.322-6.383-2.222-3.644-6.976-4.8-10.619-2.574-3.643 2.221-4.796 6.975-2.575 10.619 4.369 7.166 11.591 12.673 19.486 15.361l5.629-7.604z" fill="#94d8e6"/><path d="m130.676 247.701c4.26-.243 7.517-3.893 7.274-8.154-.242-4.26-3.89-7.487-8.153-7.275-3.295.193-7.513-.949-11.247-3.363-.191 2.827-.314 5.672-.314 8.547 0 2.848.096 5.675.284 8.476 3.44 1.171 7.007 1.814 10.523 1.814.546 0 1.09-.015 1.633-.045z" fill="#6fbbc6"/><path d="m339.911 228.185c0-24.052-13.281-55.548-31.967-74.234-13.35-10.236-29.224-17.342-46.529-20.224 0 0-113.858 65.765-115.483 65.703-4.576 11.794-7.091 24.616-7.091 38.027 0 24.052 8.08 46.214 21.666 63.932 20.137 20.137 50.182 31.967 74.234 31.967 58.083 0 105.17-47.086 105.17-105.171z" fill="#ecb880"/><path d="m307.943 153.951c13.586 17.718 21.666 39.88 21.666 63.932 0 58.085-47.087 105.171-105.171 105.171-24.052 0-46.214-8.08-63.932-21.665 19.223 25.07 49.474 41.239 83.506 41.239 58.085 0 105.171-47.087 105.171-105.171-.001-34.032-16.17-64.283-41.24-83.506z" fill="#e9a761"/><path d="m145.931 199.43c1.626.062 3.257.104 4.898.104 47.75 0 89.284-26.609 110.585-65.807-5.662-.943-11.474-1.442-17.403-1.442-44.674 0-82.837 27.857-98.08 67.145z" fill="#e9a761"/><path d="m273.323 208.9c-5.543 3.8-67.349 46.162-72.893 49.962-9.386 6.433-11.78 19.257-5.346 28.643 6.433 9.386 19.257 11.78 28.643 5.346 5.543-3.8 67.349-46.162 72.893-49.962 9.386-6.433 11.78-19.257 5.346-28.643-6.433-9.386-19.257-11.779-28.643-5.346z" fill="#f5fcff"/><path d="m236.411 55.452c-24.813-19.285-55.984-30.774-89.844-30.774-38.906 0-74.265 15.164-100.506 39.898-.262 3.027-.404 6.088-.404 9.183 0 24.052 8.08 46.214 21.666 63.932 15.896 20.077 50.182 31.967 74.234 31.967 57.661.001 111.173-47.026 94.854-114.206z" fill="#fff0af"/><path d="m236.411 55.452c-.68 57.5-47.494 103.905-105.155 103.905-24.052 0-46.214-8.08-63.932-21.665 19.223 25.07 49.473 41.239 83.506 41.239 58.083-.001 105.17-47.087 105.17-105.172-5.955-6.68-12.515-12.809-19.589-18.307z" fill="#ffe07d"/><path d="m219.72 97.809c-25.138 65.761-112.645 65.761-137.783 0-1.936-5.065 1.794-10.507 7.217-10.507h123.349c5.423 0 9.153 5.442 7.217 10.507z" fill="#f5fcff"/><path d="m445.107 308.249c0-24.052-14.515-56.782-28.877-71.144-17.718-13.586-39.88-21.666-63.932-21.666-58.084 0-105.171 47.087-105.171 105.171 0 24.052 8.08 46.214 21.665 63.932 18.926 18.926 45.292 28.207 68.213 28.834 72.625-50.88 108.102-105.041 108.102-105.127z" fill="#e592b8"/><path d="m457.405 317.058c-1.082-32.579-16.982-61.401-41.175-79.952 12.5 16.302 20.338 36.365 21.512 58.201-1.131 3.6-2.152 6.85-3.283 10.45-24.362 31.169-57.253 62.916-100.003 96.743-3.133 2.479-7.098 3.648-11.078 3.297-20.434-1.8-39.188-9.447-54.586-21.253 18.007 23.484 45.691 39.157 77.096 41.046 21.018-16.581 39.862-32.723 56.631-48.538l11.152-10.772c16.867-16.703 31.405-33.064 43.734-49.222z" fill="#e175a5"/><path d="m352.297 336.424c-24.143.001-46.261 10.446-60.683 28.658-2.649 3.345-2.085 8.205 1.261 10.854 3.346 2.65 8.205 2.085 10.854-1.261 11.473-14.489 29.176-22.798 48.568-22.799 11.906 0 22.243 2.965 31.418 8.507 6.388 0 11.475-4.997 11.475-10.996-12.395-8.427-26.596-12.963-42.893-12.963z" fill="#785252"/><path d="m395.189 349.388c-3.703 3.648-7.532 7.313-11.475 10.996 6.869 4.15 13.081 9.761 18.803 16.667 3.825-3.608 7.54-7.198 11.151-10.773-5.665-6.691-11.81-12.356-18.479-16.89z" fill="#664646"/><path d="m337.343 280.348c-6.626.368-16.375-3.636-21.364-11.818-2.221-3.644-6.974-4.799-10.619-2.574-3.643 2.221-4.796 6.975-2.574 10.619 3.89 6.381 9.799 11.587 16.495 14.972v18.446c0 4.268 3.459 7.726 7.726 7.726s7.726-3.459 7.726-7.726v-14.225c.556.028 1.112.061 1.666.061.609 0 1.216-.017 1.821-.051 4.261-.242 7.517-3.892 7.276-8.153-.242-4.262-3.901-7.501-8.153-7.277z" fill="#785252"/><path d="m399.236 265.956c-3.642-2.22-8.396-1.07-10.619 2.574-4.989 8.181-14.732 12.185-21.364 11.818-4.279-.216-7.91 3.016-8.153 7.276-.241 4.261 3.015 7.91 7.276 8.153.606.034 1.211.051 1.821.051.554 0 1.11-.033 1.665-.061v14.225c0 4.268 3.459 7.726 7.726 7.726s7.726-3.459 7.726-7.726v-18.446c6.696-3.385 12.605-8.591 16.496-14.972 2.221-3.642 1.069-8.397-2.574-10.618z" fill="#785252"/><path d="m406.829 198.691c-.002 0 .001 0-.001 0-31.538-.001-57.412-18.787-65.918-47.86-1.198-4.096 1.151-8.386 5.246-9.585 4.098-1.201 8.387 1.151 9.585 5.246 7.935 27.122 32.479 36.745 51.087 36.745s43.153-9.624 51.089-36.746c1.198-4.094 5.484-6.447 9.586-5.245 4.095 1.198 6.444 5.49 5.245 9.586-8.506 29.071-34.384 47.859-65.919 47.859z" fill="#e9a761"/><path d="m381.538 131.913c-4.268 0-7.726-3.459-7.726-7.726v-26.036c0-4.268 3.459-7.726 7.726-7.726s7.726 3.459 7.726 7.726v26.036c.001 4.268-3.458 7.726-7.726 7.726z" fill="#9d6c6c"/><path d="m432.119 131.913c-4.268 0-7.726-3.459-7.726-7.726v-26.036c0-4.268 3.459-7.726 7.726-7.726 4.268 0 7.726 3.459 7.726 7.726v26.036c0 4.268-3.459 7.726-7.726 7.726z" fill="#9d6c6c"/><g fill="#785252"><path d="m233.564 201.875c-2.27 0-4.474-1.001-5.968-2.818-2.024-2.462-2.33-5.913-.769-8.692l14.147-25.186c2.089-3.721 6.799-5.043 10.52-2.953 3.72 2.09 5.042 6.8 2.953 10.52l-4.411 7.853 9.133-3.003c4.057-1.335 8.421.873 9.754 4.927s-.873 8.421-4.927 9.754l-28.019 9.212c-.794.26-1.608.386-2.413.386z"/><path d="m188.684 242.625c-1.723 0-3.457-.573-4.894-1.752-3.3-2.705-3.782-7.573-1.076-10.873l6.096-7.435-8.915 1.281c-4.229.606-8.14-2.325-8.747-6.549-.607-4.223 2.325-8.14 6.549-8.746l28.594-4.109c3.157-.455 6.264 1.077 7.829 3.853 1.565 2.777 1.265 6.228-.756 8.693l-18.7 22.809c-1.528 1.863-3.745 2.828-5.98 2.828z"/></g></g></svg>