<svg clip-rule="evenodd" fill-rule="evenodd" stroke-linejoin="round" stroke-miterlimit="2" viewBox="0 0 510 510" xmlns="http://www.w3.org/2000/svg"><path d="m406.252 118.244c14.829 25.704 23.285 55.37 23.285 86.95 0 43.796-16.249 83.872-43.137 114.807l-.014.016c-7.225 8.268-11.191 17.204-12.395 27.987l-.001.01c-4.56 40.36 6.772 87.489 32.012 137.484 1.252 2.48 1.128 5.432-.328 7.798s-4.035 3.808-6.813 3.808h-198.778c-3.862 0-7.173-2.759-7.869-6.558-3.484-19.008-10.693-32.383-22.451-39.667-11.953-7.404-28.153-8.383-48.518-3.897-.128.028-.257.053-.387.075-16.838 2.847-29.37 2.873-37.597.587-5.631-1.565-9.665-4.217-12.354-7.542-2.907-3.596-4.424-8.078-4.206-13.538-.08-7.522-.612-13.15-1.592-17.423-1.026-4.478-2.385-6.987-4.492-8.502-.047-.034-.095-.069-.142-.105-5.352-4.03-7.501-8.579-7.893-12.984-.381-4.275.991-8.743 4.074-13.012 1.554-2.152 3.606-4.292 5.986-6.352-4.412-2.382-8.194-5.313-10.51-8.34-3.615-4.726-4.453-9.79-2.617-14.436 1.273-4.336 2.022-7.91 2.218-10.895.266-4.059-.827-6.337-3.575-7.742-10.319-4.959-16.079-11.089-18.194-17.387-2.34-6.972-.891-14.911 5.949-23.418.134-.167.274-.328.421-.483 10.274-10.87 18.425-21.847 24.413-33.085.005-.009.01-.018.014-.027 5.04-9.373 6.873-18.691 5.786-29.235-.625-5.892-.905-11.85-.905-17.944 0-97.964 81.365-177.507 181.914-177.507 61.996 0 116.682 30.199 149.53 76.297l53.386-68.393-15.55 1.883c-4.384.531-8.373-2.597-8.904-6.98-.531-4.384 2.597-8.373 6.981-8.904l34.666-4.197c4.265-.516 8.175 2.427 8.86 6.667l5.435 33.671c.703 4.359-2.264 8.469-6.623 9.172-4.359.704-8.469-2.264-9.173-6.623 0 0-1.344-8.326-2.513-15.569zm-19.48-1.047c-29.605-44.261-80.9-73.51-139.216-73.51-91.598 0-165.914 72.264-165.914 161.507 0 5.527.25 10.931.817 16.273.001.008.002.016.003.024 1.431 13.866-.977 26.118-7.6 38.443-6.565 12.318-15.442 24.384-26.677 36.307-2.408 3.027-3.894 5.548-3.053 8.052 1.081 3.22 4.731 5.557 10.019 8.089.047.023.094.045.14.069 5.074 2.553 8.588 5.998 10.634 10.781 2.422 5.661 2.678 13.974-1.091 26.796.354.438.939 1.129 1.426 1.546 1.774 1.518 4.12 2.86 6.636 3.918 2.75 1.158 5.715 1.978 8.452 2.187 3.552.273 6.497 2.861 7.221 6.35.725 3.488-.944 7.035-4.094 8.7-4.873 2.575-9.728 5.704-13.074 9.11-.914.93-1.702 1.865-2.277 2.825-.305.51-.671.954-.606 1.461.081.631.748 1.009 1.492 1.561 6.717 4.854 12.453 13.68 12.693 38.94.001.156-.002.312-.01.468-.137 2.802 1.752 4.273 4.852 5.134 6.677 1.856 16.823 1.379 30.449-.914 25.296-5.538 45.332-3.243 60.195 5.964 13.703 8.488 23.367 22.972 28.379 43.826h179.512c-22.84-48.925-32.488-95.043-27.99-134.877 1.58-14.145 6.761-25.877 16.236-36.725 24.43-28.108 39.211-64.515 39.211-104.308 0-26.368-6.488-51.254-17.994-73.231l-89.174 114.239c4.255 5.301 6.801 12.032 6.801 19.352 0 17.084-13.87 30.954-30.954 30.954-17.085 0-30.955-13.87-30.955-30.954 0-8.553 3.476-16.301 9.092-21.906l-23.738-40.128c-2.365.579-4.837.886-7.379.886-6.02 0-11.641-1.722-16.397-4.7l-46.184 57.626c3.779 5.132 6.013 11.471 6.013 18.327 0 17.085-13.87 30.955-30.955 30.955-17.084 0-30.954-13.87-30.954-30.955 0-17.084 13.87-30.954 30.954-30.954 4.432 0 8.648.933 12.462 2.614l47.659-59.464c-2.269-4.304-3.553-9.205-3.553-14.403 0-17.084 13.87-30.955 30.955-30.955 17.084 0 30.954 13.871 30.954 30.955 0 8.783-3.666 16.716-9.55 22.353l23.569 39.841c2.554-.683 5.238-1.047 8.007-1.047 3.972 0 7.77.75 11.261 2.116zm-245.059 143.508c-8.253 0-14.954 6.701-14.954 14.954 0 8.254 6.701 14.955 14.954 14.955 8.254 0 14.955-6.701 14.955-14.955 0-8.253-6.701-14.954-14.955-14.954zm140.503-10.106c-8.254 0-14.955 6.701-14.955 14.955 0 8.253 6.701 14.954 14.955 14.954 8.253 0 14.954-6.701 14.954-14.954 0-8.254-6.701-14.955-14.954-14.955zm-52.98-92.102c-8.254 0-14.955 6.701-14.955 14.955 0 8.253 6.701 14.954 14.955 14.954 8.253 0 14.954-6.701 14.954-14.954 0-8.254-6.701-14.955-14.954-14.955z"/></svg>