<svg id="Layer_1" viewBox="0 0 512 512" xmlns="http://www.w3.org/2000/svg" data-name="Layer 1"><path d="m500.83 392v-363.95a5 5 0 0 0 -10 0v292.18l-15.83-104.23a4.89 4.89 0 0 0 -.14-.64 60.86 60.86 0 0 0 -43.79-42l-.58-.15a60.9 60.9 0 0 0 -24.64-.94 81.78 81.78 0 1 0 -118.8 1l-39.28 85.41a47.75 47.75 0 0 0 12.05 55.77l.51.44a47.76 47.76 0 0 0 7.52 5.33 55.88 55.88 0 0 0 -26.76 20.17l-59.84 83.61a41 41 0 0 0 6.61 54.88h-171.7a5 5 0 0 0 0 10h386.16 2.76 2.27 88.49a5 5 0 0 0 5-5v-91.88zm-154-193.66a81.69 81.69 0 0 0 18.53-2.34l-30.27 27.68zm-72.7-81.79a71.8 71.8 0 1 1 77.45 71.56l10.74-23.11a32.21 32.21 0 0 0 -17.48-43.56l-.49-.19a32.23 32.23 0 0 0 -41 16.52l-11.75 25.56a71.32 71.32 0 0 1 -17.43-46.8zm-84.75 313.29 59.82-83.7a46.38 46.38 0 0 1 61.8-12.55l65.3 40a5 5 0 0 0 7.53-5.14l-15-84.89 28.71-19.65a5 5 0 0 0 -5.64-8.25l-31.41 21.44-.09.06-47.78 32.71a37.56 37.56 0 0 1 -45.76-2.59l-.51-.44a37.7 37.7 0 0 1 -9.52-44l55.56-120.84a22.25 22.25 0 0 1 28.33-11.39l.5.19a22.23 22.23 0 0 1 12 30.05l-37.7 81.25a5 5 0 0 0 7.91 5.79l58.18-53.21a50.68 50.68 0 0 1 46.47-11.82l.59.14a50.85 50.85 0 0 1 36.48 34.8l24.71 162.46a87.05 87.05 0 0 1 1 11.78v.82a85.84 85.84 0 0 1 -83.53 86.05h-4.73a85.62 85.62 0 0 1 -57-24l-53.6-51.62a5 5 0 0 0 -3.47-1.4h-.44a5 5 0 0 0 -3.61 2l-44.81 62a31 31 0 0 1 -25.11 12.84 31 31 0 0 1 -25.2-49zm121.55-107.61a46.9 46.9 0 0 0 7.33-4.11l41.44-28.37 12.3 69.51-55.84-34.19a56.64 56.64 0 0 0 -5.23-2.84zm-69.63 156.68a40.8 40.8 0 0 0 6.49-7.07l41.44-57.36 49.41 47.62a96.37 96.37 0 0 0 23.79 16.81zm249.54 0h-43.16a96.79 96.79 0 0 0 13.85-8.42 95.77 95.77 0 0 0 29.31-34.64z"/></svg>