<svg id="Capa_1" enable-background="new 0 0 512 512" height="512" viewBox="0 0 512 512" width="512" xmlns="http://www.w3.org/2000/svg"><g><g><g><path d="m446.798 437.052-28.497 17.108h-125.075l-16.643-23.942c0-39.192-3.179-48.119-.108-68.396 1.013-6.597-9.405-26.748-3.674-30.189 5.848-3.504 11.864-6.618 17.86-9.373.021 0 .042-.011.063-.021 5.193-2.396 10.366-4.507 15.4-6.397 20.098-7.547 37.957-11.273 45.642-12.656 2.639-.475 5.341-.475 7.991 0 7.674 1.383 25.534 5.109 45.631 12.656 10.872 4.064 22.409 9.247 33.323 15.791 5.732 3.441-6.342 23.592-5.329 30.189 3.072 20.277 13.416 36.038 13.416 75.23z" fill="#5766cb"/><path d="m290.724 322.238c-4.433 3.716-7.452 9.975-8.233 17.036-2.396 21.839-7.463 72.664-7.463 114.885h-22.388c0-39.192 20.763-72.061 23.835-92.338 1.013-6.597-9.405-26.748-3.674-30.189 5.848-3.504 11.864-6.618 17.86-9.373.021.001.042-.01.063-.021z" fill="#3d4fc3"/><path d="m323.243 363.376s5.551 10.054 14.519 20.83c5.043 6.06 11.167-.862 17.993 3.994 6.825-4.856 12.948 2.067 17.991-3.992 8.97-10.776 14.521-20.832 14.521-20.832v-41.141h-65.024z" fill="#ecf4ff"/><path d="m373.744 384.205c-5.041 6.061-11.166 12.349-17.99 17.208-6.825-4.859-12.949-11.147-17.99-17.208l17.99-22.577z" fill="#d57080"/><path d="m323.243 335.648 32.514 31.258 32.514-31.258-35.216-22.471" fill="#d57080"/><path d="m301.005 400.824c-2.797 11.495-7.779 34.59-7.779 53.337h-40.586c0-39.192 6.46-86.365 9.532-106.641 1.013-6.597 4.898-12.445 10.629-15.886 3.705 1.911 6.956 4.201 9.806 6.755 13.711 12.318 18.187 30.885 19.623 43.034.77 6.491.327 13.057-1.225 19.401z" fill="#ecf4ff"/><path d="m458.877 454.156h-40.576c0-18.738-4.985-41.839-7.784-53.334-1.545-6.345-1.99-12.906-1.224-19.392 1.732-14.673 7.907-38.724 29.419-49.794 5.733 3.44 9.619 9.282 10.629 15.888 3.075 20.274 9.536 67.448 9.536 106.632z" fill="#ecf4ff"/><g fill="#ddeafb"><path d="m282.607 338.388c-.042.296-.085.591-.116.887-2.396 21.839-7.463 72.664-7.463 114.885h-22.388c0-39.192 6.46-86.365 9.532-106.641 1.013-6.597 4.898-12.445 10.629-15.886 3.705 1.91 6.956 4.201 9.806 6.755z"/><path d="m405.388 315.838-17.117 47.538-32.514-31.258-32.514 31.258-17.117-47.538c20.093-7.544 37.956-11.266 45.636-12.649 2.648-.482 5.342-.482 7.99 0 7.68 1.383 25.543 5.105 45.636 12.649z"/></g></g><path d="m477.162 180.261-55.09 62.437-123.129-59.908-72.708 1.034s-36.516-53.391-25.449-105.573c11.067-52.17 78.267-20.551 78.267-20.551s36.554-55.809 84.772-55.809c71.649 0 101.809 68.459 134.225 43.957 0 0 42.511 80.361-20.888 134.413z" fill="#9d6b6b"/><path d="m298.943 182.79-72.708 1.034s-36.516-53.391-25.449-105.573c11.067-52.17 78.267-20.551 78.267-20.551s-23.044 38.523 18.719 69.269c13.472 9.908 10.88 31.344 1.171 55.821z" fill="#8b5e5e"/><path d="m380.441 266.21v41.224c0 13.63-11.052 24.682-24.682 24.682-13.637 0-24.69-11.052-24.69-24.682v-41.224z" fill="#ffddce"/><path d="m363.82 330.77c-2.525.869-5.237 1.344-8.059 1.344-13.637 0-24.69-11.052-24.69-24.682v-41.224h16.118v41.224c0 10.815 6.953 20.003 16.631 23.338z" fill="#ffcbbe"/><path d="m252.634 231.883c-17.798 0-32.226-14.428-32.226-32.226 0-2.45.273-4.835.791-7.128 4.181-18.515 31.435-15.478 31.435 3.503h206.246c0-18.981 27.254-22.018 31.435-3.503.518 2.293.791 4.679.791 7.128 0 17.798-14.428 32.226-32.226 32.226" fill="#ffcbbe"/><path d="m458.689 217.969c-1.486 0-2.988-.441-4.303-1.358-3.396-2.371-4.211-7.07-1.841-10.467.268-.383 2.728-3.825 6.738-6.692 6.127-4.381 12.995-5.383 19.332-2.826 3.842 1.55 5.699 5.92 4.149 9.761s-5.921 5.7-9.761 4.149c-3.865-1.56-8.15 4.182-8.192 4.24-1.453 2.084-3.767 3.193-6.122 3.193z" fill="#eaac9d"/><path d="m331.069 266.21h49.372v37.978h-49.372z" fill="#ffcbbe"/><path d="m458.879 158.176v57.778c0 41.514-33.65 75.164-75.164 75.164h-55.921c-41.514 0-75.164-33.65-75.164-75.164v-57.778c26.633 0 48.231-21.586 48.231-48.219 0 0 .386.361 1.147 1.022 8.077 6.967 58.988 47.197 156.871 47.197z" fill="#ffddce"/><path d="m377.173 291.118h-49.378c-41.514 0-75.164-33.65-75.164-75.164v-57.778c26.633 0 48.231-21.586 48.231-48.219 0 0 .386.361 1.147 1.022v104.975c0 41.514 33.65 75.164 75.164 75.164z" fill="#ffcbbe"/><g fill="#eaafa5"><ellipse cx="423.785" cy="214.019" rx="16.881" ry="10.264"/><ellipse cx="287.729" cy="214.019" rx="16.881" ry="10.264"/></g><path d="m355.757 250.471c-7.339 0-14.238-2.858-19.428-8.047-3.091-3.092-3.091-8.104.001-11.196 3.09-3.092 8.103-3.091 11.196 0 2.199 2.199 5.121 3.409 8.231 3.409 3.109 0 6.032-1.211 8.232-3.41 3.091-3.092 8.104-3.091 11.196 0 3.091 3.092 3.091 8.104-.001 11.196-5.189 5.19-12.088 8.048-19.427 8.048z" fill="#d57080"/></g><g><path d="m133.331 1.892c73.637 0 133.331 59.694 133.331 133.33v126.551c0 35.765-22.775 67.559-56.637 79.068l-76.693 26.066-76.693-26.066c-33.863-11.509-56.637-43.303-56.637-79.068v-126.551c-.001-73.636 59.693-133.33 133.329-133.33z" fill="#e4936b"/><path d="m100.84 340.842 32.491 26.064-76.688-26.064c-33.863-11.506-56.643-43.307-56.643-79.065v-126.555c0-73.636 59.694-133.33 133.33-133.33-31.194 0-56.485 59.694-56.485 133.33v126.555c.001 35.758 9.653 67.559 23.995 79.065z" fill="#e27d47"/><g><path d="m224.377 437.052-28.497 17.108h-125.075l-16.643-23.942c0-39.192-3.179-48.119-.108-68.396 1.013-6.597-9.405-26.748-3.674-30.189 5.848-3.504 11.864-6.618 17.86-9.373.021 0 .042-.011.063-.021 5.193-2.396 10.366-4.507 15.4-6.397 20.098-7.547 37.957-11.273 45.642-12.656 2.639-.475 5.341-.475 7.991 0 7.674 1.383 25.534 5.109 45.631 12.656 10.872 4.064 22.409 9.247 33.323 15.791 5.732 3.441-6.342 23.592-5.329 30.189 3.072 20.277 13.416 36.038 13.416 75.23z" fill="#5766cb"/><path d="m68.304 322.239c-4.433 3.716-7.452 9.975-8.233 17.036-2.396 21.839-7.463 72.664-7.463 114.885h-22.388c0-39.192 20.763-72.061 23.835-92.338 1.013-6.597-9.405-26.748-3.674-30.189 5.848-3.504 11.864-6.618 17.86-9.373.02 0 .041-.011.063-.021z" fill="#3d4fc3"/><path d="m100.823 363.376s5.551 10.054 14.519 20.83c5.043 6.06 11.167-.862 17.993 3.994 6.825-4.856 12.948 2.067 17.991-3.992 8.97-10.776 14.521-20.832 14.521-20.832v-41.141h-65.024z" fill="#ecf4ff"/><path d="m151.323 384.205c-5.041 6.06-11.166 12.349-17.99 17.208-6.825-4.859-12.949-11.147-17.99-17.208l17.99-22.577z" fill="#d57080"/><path d="m100.823 335.648 32.513 31.258 32.514-31.258-35.216-22.471" fill="#d57080"/><path d="m78.584 400.824c-2.797 11.495-7.779 34.59-7.779 53.337h-40.585c0-39.192 6.46-86.365 9.532-106.641 1.013-6.597 4.898-12.445 10.629-15.886 3.705 1.911 6.956 4.201 9.806 6.755 13.711 12.318 18.187 30.885 19.623 43.034.77 6.491.326 13.057-1.226 19.401z" fill="#ecf4ff"/><path d="m236.456 454.156h-40.576c0-18.738-4.985-41.839-7.784-53.334-1.545-6.345-1.99-12.906-1.224-19.392 1.732-14.673 7.907-38.724 29.419-49.794 5.733 3.44 9.619 9.282 10.629 15.888 3.075 20.274 9.536 67.448 9.536 106.632z" fill="#ecf4ff"/><g fill="#ddeafb"><path d="m60.186 338.388c-.042.296-.085.591-.116.887-2.396 21.839-7.463 72.664-7.463 114.885h-22.387c0-39.192 6.46-86.365 9.532-106.641 1.013-6.597 4.898-12.445 10.629-15.886 3.704 1.91 6.956 4.201 9.805 6.755z"/><path d="m182.967 315.838-17.117 47.538-32.514-31.258-32.514 31.258-17.117-47.538c20.093-7.544 37.956-11.266 45.636-12.649 2.648-.482 5.342-.482 7.99 0 7.681 1.383 25.544 5.105 45.636 12.649z"/></g></g><path d="m158.021 266.209v41.224c0 13.63-11.052 24.682-24.682 24.682-13.637 0-24.69-11.052-24.69-24.682v-41.224z" fill="#ffddce"/><path d="m141.399 330.77c-2.525.869-5.237 1.344-8.059 1.344-13.637 0-24.69-11.052-24.69-24.682v-41.224h16.118v41.224c.001 10.814 6.953 20.003 16.631 23.338z" fill="#ffcbbe"/><path d="m108.649 266.209h49.372v37.978h-49.372z" fill="#ffcbbe"/><path d="m236.454 159.317v56.644c0 41.506-33.648 75.161-75.161 75.161h-55.923c-41.506 0-75.161-33.648-75.161-75.161v-55.998c12.798-.371 30.409-2.555 49.38-6.41 38.877-7.903 83.503-22.84 104.263-43.601-.001 0 20.536 41.967 52.602 49.365z" fill="#ffddce"/><path d="m154.749 291.122h-49.38c-41.506 0-75.161-33.648-75.161-75.161v-55.998c12.798-.371 30.409-2.555 49.38-6.41v62.408c0 41.506 33.647 75.161 75.161 75.161z" fill="#ffcbbe"/><g fill="#eaafa5"><ellipse cx="194.081" cy="221.302" rx="16.881" ry="10.264"/><ellipse cx="72.592" cy="221.302" rx="16.881" ry="10.264"/></g><g fill="#2b4d66"><path d="m307.402 165.402c-5.386 0-9.768 7.263-9.768 16.191s4.382 16.191 9.768 16.191 9.767-7.263 9.767-16.191-4.381-16.191-9.767-16.191z"/><ellipse cx="404.112" cy="181.593" rx="9.767" ry="16.191"/><path d="m86.604 173.616c-.338 0-11.687.086-12.168.089-3.217 0-5.835 2.617-5.835 5.835 0 3.217 2.618 5.835 5.835 5.835h2.662c-.26 1.481-.392 3.015-.392 4.564 0 9 4.441 16.323 9.899 16.323 5.459 0 9.899-7.322 9.899-16.323s-4.442-16.323-9.9-16.323z"/><path d="m192.227 173.705c-.534-.004-12.573-.089-12.911-.089-5.459 0-9.899 7.322-9.899 16.323s4.441 16.323 9.899 16.323 9.899-7.322 9.899-16.323c0-1.549-.132-3.083-.392-4.564h3.404c3.217 0 5.835-2.617 5.835-5.835-.001-3.217-2.618-5.834-5.835-5.835z"/></g><path d="m133.331 250.614c-7.081 0-13.738-2.757-18.744-7.764-3.091-3.092-3.091-8.104.001-11.196s8.104-3.091 11.196 0c2.016 2.016 4.696 3.127 7.548 3.127s5.532-1.11 7.549-3.127c3.091-3.092 8.104-3.092 11.196 0s3.092 8.104 0 11.196c-5.009 5.007-11.665 7.764-18.746 7.764z" fill="#d57080"/></g><path d="m32.145 453.733h435.105v56.375h-435.105z" fill="#8b5e5e"/><path d="m479.21 464.995h-459.024c-6.285 0-11.38-5.095-11.38-11.38v-14.468c0-6.285 5.095-11.38 11.38-11.38h459.024c6.285 0 11.38 5.095 11.38 11.38v14.468c0 6.285-5.095 11.38-11.38 11.38z" fill="#9d6b6b"/><path d="m42.172 464.998h-21.987c-6.281 0-11.379-5.098-11.379-11.389v-14.461c0-6.291 5.098-11.379 11.379-11.379h21.987c-6.28 0-11.379 5.088-11.379 11.379v14.461c0 6.29 5.098 11.389 11.379 11.389z" fill="#8b5e5e"/></g></svg>