<svg id="Flat" height="512" viewBox="0 0 512 512" width="512" xmlns="http://www.w3.org/2000/svg"><path d="m480 296v-160c0-61.856-48-112-104-112s-104 50.144-104 112v160z" fill="#f7b030"/><g fill="#f0c6a4"><path d="m328 208h96v88h-96z"/><path d="m40 360h48v128h-48z"/><path d="m216 360h48v128h-48z"/></g><path d="m264 312v48h-32v80h-160v-80h-32v-48a96 96 0 0 1 96-96h32a96 96 0 0 1 96 96z" fill="#395a8d"/><path d="m104 224 48 72 48-72z" fill="#dadcde"/><path d="m72 440h160v48h-160z" fill="#f78a25"/><path d="m144 440h16v48h-16z" fill="#e37e22"/><path d="m216 440v-112a8 8 0 0 1 16 0v112z" fill="#34507b"/><path d="m72 440v-112a8 8 0 0 1 16 0v112z" fill="#34507b"/><path d="m240 128h-24v24a24 24 0 1 0 24-24z" fill="#f0c6a4"/><path d="m72 80v88c4.014 40.426 38.517 72 80 72a80 80 0 0 0 80-80v-80z" fill="#f7cca9"/><path d="m256 128v6.12a23.891 23.891 0 0 0 -16-6.12h-8c-32-8-32-32-32-32 0 72-128 72-128 72h-48s24-8 24-32v-8a104 104 0 0 1 208 0z" fill="#8c5237"/><circle cx="184" cy="160" fill="#d49073" r="8"/><path d="m152 208c-18.772 0-28.6-9.285-29.657-10.344a8 8 0 0 1 11.314-11.313c.056.056 6.2 5.657 18.343 5.657s18.286-5.6 18.343-5.657a8 8 0 0 1 11.314 11.313c-1.057 1.059-10.885 10.344-29.657 10.344z" fill="#d49073"/><path d="m312 152v-24h-24a24 24 0 1 0 24 24z" fill="#f0c6a4"/><path d="m464 128h-24v24a24 24 0 1 0 24-24z" fill="#f0c6a4"/><path d="m264 312h224v176h-224z" fill="#f0c6a4"/><path d="m487.99 306.01a.375.375 0 0 1 .01.11v13.88l-32 24v48h-160v-48l-32-24 .18-13.88-.18-.12h.37a96.031 96.031 0 0 1 71.31-86.84c-.82 11.35-.47 57.96 40.32 68.84 40.91-10.91 41.14-57.72 40.32-68.94a96.033 96.033 0 0 1 71.67 86.94h.01z" fill="#f78a25"/><path d="m304 392h144v32h-144z" fill="#f7cca9"/><path d="m464 488h-176l16-64h144z" fill="#8c5237"/><path d="m376 64c16 48 80 64 80 64v32a80 80 0 0 1 -80 80 80 80 0 0 1 -80-80v-32s64-16 80-64z" fill="#f7cca9"/><circle cx="344" cy="160" fill="#d49073" r="8"/><circle cx="408" cy="160" fill="#d49073" r="8"/><path d="m405.657 186.343a8 8 0 0 0 -11.314 0c-.057.057-6.2 5.657-18.343 5.657s-18.286-5.6-18.343-5.657a8 8 0 0 0 -11.314 11.314c1.057 1.058 10.885 10.343 29.657 10.343 18.771 0 28.6-9.285 29.657-10.343a8 8 0 0 0 0-11.314z" fill="#d49073"/><path d="m256 360h16v128h-16z" fill="#e0b999"/></svg>