<svg id="Layer_1" viewBox="0 0 512 512" xmlns="http://www.w3.org/2000/svg" data-name="Layer 1"><path d="m312.229 216.9v37.309c0 3.866 3.134 7 7 7h25.047v25.047c0 3.866 3.134 7 7 7h37.309c3.866 0 7-3.134 7-7v-25.047h25.047c3.866 0 7-3.134 7-7v-37.309c0-3.866-3.134-7-7-7h-25.047v-25.047c0-3.866-3.134-7-7-7h-37.309c-3.866 0-7 3.134-7 7v25.047h-25.047c-3.866 0-7 3.134-7 7zm14 7h25.047c3.866 0 7-3.134 7-7v-25.047h23.309v25.047c0 3.866 3.134 7 7 7h25.047v23.309h-25.047c-3.866 0-7 3.134-7 7v25.047h-23.309v-25.047c0-3.866-3.134-7-7-7h-25.047zm173.095 141.598c-14.504 19.066-149.917 90.932-151.283 91.656-.05.026-.101.053-.151.078-30.031 14.984-58.59 20.465-92.61 17.758-10.158-.807-20.477-2.013-31.402-3.289-46.291-5.408-98.757-11.539-165.202 10.054-.719.233-1.448.345-2.165.345-2.951 0-5.694-1.881-6.656-4.839-1.195-3.677.817-7.625 4.494-8.82 69.357-22.537 123.438-16.219 171.153-10.645 10.792 1.262 20.987 2.452 30.886 3.239 31.306 2.487 57.578-2.537 85.174-16.292 56.129-29.737 138.266-76.741 146.619-87.721 8.231-10.821 6.539-19.928 2.211-24.842-4.379-4.973-13.926-8.219-26.416-1.006-24.002 13.856-81.085 41.504-122.153 56.517-.914 3.236-2.247 6.4-4.017 9.378-9.48 15.953-34.267 19.855-56.237 19.855-2.989 0-5.924-.072-8.764-.195-25.346-1.106-53.53-7.004-67.017-14.023-3.429-1.784-4.762-6.012-2.977-9.44 1.785-3.431 6.011-4.761 9.441-2.978 9.948 5.178 34.765 11.303 61.163 12.454 27.302 1.189 46.875-3.603 52.356-12.825 4.125-6.939 4.625-15.969 1.217-21.958-2.927-5.144-8.323-7.752-16.038-7.752-52.065 0-88.072-14.458-117.004-26.075-30.621-12.295-52.744-21.177-80.081-8.85-37.072 16.718-51.777 21.805-74.036 29.504-7.485 2.589-15.968 5.523-26.483 9.308-3.638 1.312-7.647-.578-8.957-4.215s.578-7.647 4.215-8.957c10.597-3.814 19.125-6.764 26.648-9.367 21.897-7.574 36.364-12.578 72.857-29.035 32.774-14.78 59.781-3.936 91.052 8.62 29.262 11.75 62.429 25.066 111.788 25.066 12.748 0 22.765 5.267 28.206 14.829 1.96 3.445 3.204 7.29 3.769 11.3 39.727-15.107 91.617-40.335 114.051-53.285 18.548-10.71 35.424-5.771 43.921 3.877 10.042 11.401 9.424 28.111-1.575 42.571zm-288.326-88.861c1.086.63 2.299.945 3.512.945s2.426-.315 3.512-.945c18.692-10.842 35.543-21.892 50.513-33.104 4.083 52.366 47.999 93.728 101.395 93.728 56.081 0 101.707-45.625 101.707-101.707s-45.625-101.707-101.707-101.707c-6.127 0-12.204.557-18.176 1.635 2.399-10.702 3.043-21.343 1.91-31.881-3.735-34.751-25.597-62.673-55.697-71.134-28.955-8.141-58.993 3.279-83.458 31.396-24.464-28.116-54.504-39.533-83.458-31.396-30.1 8.461-51.962 36.383-55.697 71.134-2.991 27.836 6.387 56.396 27.875 84.884 22.815 30.249 59.073 59.907 107.767 88.151zm158.933-128.79c48.362 0 87.707 39.345 87.707 87.707s-39.345 87.707-87.707 87.707-87.707-39.345-87.707-87.707c0-.924.016-1.855.045-2.786 17.703-14.551 32.254-29.344 43.521-44.282 9.47-12.556 16.585-25.126 21.329-37.642 7.405-1.988 15.061-2.997 22.812-2.997zm-280.655-42.749c3.12-29.03 21.005-52.249 45.565-59.153 4.779-1.343 9.614-2.004 14.462-2.004 20.908 0 42.03 12.303 59.656 35.245 1.325 1.725 3.376 2.735 5.551 2.735s4.226-1.011 5.551-2.735c21.714-28.262 48.73-40.375 74.118-33.241 24.56 6.904 42.446 30.123 45.565 59.153 2.599 24.183-5.856 49.402-25.132 74.958-21.142 28.03-54.807 55.746-100.103 82.418-45.295-26.672-78.961-54.389-100.103-82.418-19.275-25.556-27.731-50.775-25.132-74.958zm52.604-1.525c0-3.866 3.134-7 7-7 18.368 0 33.311 14.943 33.311 33.312v20.99c0 15.418 10.852 28.349 25.319 31.556v-76.493c0-3.866 3.134-7 7-7s7 3.134 7 7v76.493c14.467-3.207 25.319-16.138 25.319-31.556v-20.99c0-18.368 14.943-33.312 33.311-33.312 3.866 0 7 3.134 7 7s-3.134 7-7 7c-10.648 0-19.311 8.663-19.311 19.312v20.99c0 23.162-17.088 42.407-39.319 45.791v39.646c0 3.866-3.134 7-7 7s-7-3.134-7-7v-39.646c-22.231-3.384-39.319-22.629-39.319-45.791v-20.99c0-10.648-8.663-19.312-19.311-19.312-3.866 0-7-3.134-7-7z"/></svg>